<svg width="76" height="34" viewBox="0 0 76 34" fill="none" xmlns="http://www.w3.org/2000/svg">
<path d="M11.4373 0.176119C11.2334 0.0607416 11.0021 0 10.7667 0C10.5312 0 10.2999 0.0607416 10.096 0.176119C6.84984 2.0123 4.18939 4.69788 2.41259 7.93209C0.635781 11.1663 -0.187217 14.8214 0.0357634 18.4881C0.760099 28.4394 9.14362 33.461 10.096 34V26.5595L6.2731 22.7999C6.14859 22.6778 6.07864 22.5123 6.07864 22.3398C6.07864 22.1672 6.14859 22.0017 6.2731 21.8797C6.39761 21.7576 6.56649 21.6891 6.74258 21.6891C6.91867 21.6891 7.08754 21.7576 7.21206 21.8797L10.096 24.6928V17.3575L6.2731 13.5979C6.14859 13.4759 6.07864 13.3103 6.07864 13.1378C6.07864 12.9652 6.14859 12.7997 6.2731 12.6777C6.39761 12.5557 6.56649 12.4871 6.74258 12.4871C6.91867 12.4871 7.08754 12.5557 7.21206 12.6777L10.096 15.4909V9.19407C10.096 9.01974 10.1666 8.85256 10.2924 8.7293C10.4182 8.60603 10.5888 8.53678 10.7667 8.53678C10.9445 8.53678 11.1151 8.60603 11.2409 8.7293C11.3667 8.85256 11.4373 9.01974 11.4373 9.19407V15.4909L14.3213 12.6777C14.3829 12.6173 14.4561 12.5693 14.5367 12.5366C14.6172 12.5039 14.7036 12.4871 14.7908 12.4871C14.8779 12.4871 14.9643 12.5039 15.0448 12.5366C15.1254 12.5693 15.1986 12.6173 15.2602 12.6777C15.3219 12.7381 15.3708 12.8098 15.4042 12.8888C15.4375 12.9677 15.4547 13.0523 15.4547 13.1378C15.4547 13.2232 15.4375 13.3078 15.4042 13.3868C15.3708 13.4657 15.3219 13.5375 15.2602 13.5979L11.4373 17.3575V24.6928L14.3213 21.8797C14.4458 21.7576 14.6147 21.6891 14.7908 21.6891C14.9668 21.6891 15.1357 21.7576 15.2602 21.8797C15.3847 22.0017 15.4547 22.1672 15.4547 22.3398C15.4547 22.5123 15.3847 22.6778 15.2602 22.7999L11.4373 26.5595V34C12.3897 33.461 20.8269 28.4394 21.4976 18.4881C21.7206 14.8214 20.8976 11.1663 19.1207 7.93209C17.3439 4.69788 14.6835 2.0123 11.4373 0.176119Z" fill="#FFD642"/>
<path d="M38.6375 0.176119C38.4336 0.0607416 38.2023 0 37.9669 0C37.7314 0 37.5001 0.0607416 37.2962 0.176119C34.05 2.0123 31.3896 4.69788 29.6128 7.93209C27.836 11.1663 27.013 14.8214 27.236 18.4881C27.9603 28.4394 36.3438 33.461 37.2962 34V26.5595L33.4733 22.7999C33.3488 22.6778 33.2788 22.5123 33.2788 22.3398C33.2788 22.1672 33.3488 22.0017 33.4733 21.8797C33.5978 21.7576 33.7667 21.6891 33.9428 21.6891C34.1189 21.6891 34.2877 21.7576 34.4123 21.8797L37.2962 24.6928V17.3575L33.4733 13.5979C33.3488 13.4759 33.2788 13.3103 33.2788 13.1378C33.2788 12.9652 33.3488 12.7997 33.4733 12.6777C33.5978 12.5557 33.7667 12.4871 33.9428 12.4871C34.1189 12.4871 34.2877 12.5557 34.4123 12.6777L37.2962 15.4909V9.19407C37.2962 9.01974 37.3668 8.85256 37.4926 8.7293C37.6184 8.60603 37.789 8.53678 37.9669 8.53678C38.1447 8.53678 38.3153 8.60603 38.4411 8.7293C38.5669 8.85256 38.6375 9.01974 38.6375 9.19407V15.4909L41.5215 12.6777C41.5831 12.6173 41.6563 12.5693 41.7369 12.5366C41.8174 12.5039 41.9038 12.4871 41.991 12.4871C42.0781 12.4871 42.1645 12.5039 42.245 12.5366C42.3256 12.5693 42.3988 12.6173 42.4604 12.6777C42.5221 12.7381 42.571 12.8098 42.6044 12.8888C42.6377 12.9677 42.6549 13.0523 42.6549 13.1378C42.6549 13.2232 42.6377 13.3078 42.6044 13.3868C42.571 13.4657 42.5221 13.5375 42.4604 13.5979L38.6375 17.3575V24.6928L41.5215 21.8797C41.646 21.7576 41.8149 21.6891 41.991 21.6891C42.167 21.6891 42.3359 21.7576 42.4604 21.8797C42.5849 22.0017 42.6549 22.1672 42.6549 22.3398C42.6549 22.5123 42.5849 22.6778 42.4604 22.7999L38.6375 26.5595V34C39.5899 33.461 48.0271 28.4394 48.6978 18.4881C48.9207 14.8214 48.0977 11.1663 46.3209 7.93209C44.5441 4.69788 41.8837 2.0123 38.6375 0.176119Z" fill="#FF6737"/>
<path d="M65.8377 0.176119C65.6338 0.0607416 65.4025 0 65.1671 0C64.9316 0 64.7003 0.0607416 64.4964 0.176119C61.2502 2.0123 58.5898 4.69788 56.813 7.93209C55.0362 11.1663 54.2132 14.8214 54.4362 18.4881C55.1605 28.4394 63.544 33.461 64.4964 34V26.5595L60.6735 22.7999C60.549 22.6778 60.479 22.5123 60.479 22.3398C60.479 22.1672 60.549 22.0017 60.6735 21.8797C60.798 21.7576 60.9669 21.6891 61.143 21.6891C61.3191 21.6891 61.4879 21.7576 61.6124 21.8797L64.4964 24.6928V17.3575L60.6735 13.5979C60.549 13.4759 60.479 13.3103 60.479 13.1378C60.479 12.9652 60.549 12.7997 60.6735 12.6777C60.798 12.5557 60.9669 12.4871 61.143 12.4871C61.3191 12.4871 61.4879 12.5557 61.6124 12.6777L64.4964 15.4909V9.19407C64.4964 9.01974 64.567 8.85256 64.6928 8.7293C64.8186 8.60603 64.9892 8.53678 65.1671 8.53678C65.3449 8.53678 65.5155 8.60603 65.6413 8.7293C65.7671 8.85256 65.8377 9.01974 65.8377 9.19407V15.4909L68.7217 12.6777C68.7833 12.6173 68.8565 12.5693 68.9371 12.5366C69.0176 12.5039 69.104 12.4871 69.1911 12.4871C69.2783 12.4871 69.3647 12.5039 69.4452 12.5366C69.5258 12.5693 69.599 12.6173 69.6606 12.6777C69.7223 12.7381 69.7712 12.8098 69.8045 12.8888C69.8379 12.9677 69.8551 13.0523 69.8551 13.1378C69.8551 13.2232 69.8379 13.3078 69.8045 13.3868C69.7712 13.4657 69.7223 13.5375 69.6606 13.5979L65.8377 17.3575V24.6928L68.7217 21.8797C68.8462 21.7576 69.0151 21.6891 69.1911 21.6891C69.3672 21.6891 69.5361 21.7576 69.6606 21.8797C69.7851 22.0017 69.8551 22.1672 69.8551 22.3398C69.8551 22.5123 69.7851 22.6778 69.6606 22.7999L65.8377 26.5595V34C66.7901 33.461 75.2273 28.4394 75.898 18.4881C76.1209 14.8214 75.2979 11.1663 73.5211 7.93209C71.7443 4.69788 69.0839 2.0123 65.8377 0.176119Z" fill="#E0DE9F"/>
</svg>
