<svg width="72" height="34" viewBox="0 0 72 34" fill="none" xmlns="http://www.w3.org/2000/svg">
<path fill-rule="evenodd" clip-rule="evenodd" d="M42.2707 6.22674C42.2707 9.66568 39.4632 12.4535 36.0001 12.4535C32.537 12.4535 29.7296 9.66568 29.7296 6.22674C29.7296 2.78781 32.537 0 36.0001 0C39.4632 0 42.2707 2.78781 42.2707 6.22674ZM22.4639 13.8372H49.6361C47.9441 15.4186 46.8492 17.4942 46.1525 19.0756H42.9675L41.8726 31.1337C41.8726 32.4186 40.8773 33.6047 39.5834 33.7035C38.389 33.8023 37.0951 33.9012 35.9007 33.9012C34.7063 33.9012 33.5119 33.8023 32.3175 33.7035C31.0236 33.5058 30.0283 32.4186 30.0283 31.1337L28.8339 19.0756H25.848C25.1512 17.4942 24.1559 15.4186 22.4639 13.8372Z" fill="#E0DE9F"/>
<path fill-rule="evenodd" clip-rule="evenodd" d="M19.5773 6.22674C19.5773 9.66568 16.7699 12.4535 13.3068 12.4535C9.84366 12.4535 7.03625 9.66568 7.03625 6.22674C7.03625 2.78781 9.84366 0 13.3068 0C16.7699 0 19.5773 2.78781 19.5773 6.22674ZM24.3548 21.5465C24.5538 21.9419 24.6534 22.2384 24.7529 22.5349C25.3501 23.9186 26.0468 26.5872 26.5445 28.8605C26.8431 30.0465 26.1463 31.3314 24.952 31.8256H24.8524C23.3594 32.4186 21.6674 31.5291 21.2693 29.9477C20.7716 27.7733 20.1744 25.5 19.7763 24.5116C19.7392 24.4012 19.6884 24.2772 19.634 24.1445C19.5423 23.9208 19.4406 23.6726 19.3782 23.4244L19.1791 31.2326C19.1791 32.5174 18.1838 33.7035 16.8899 33.8023C15.795 33.9012 14.5011 34 13.3067 34C12.1123 34 10.918 33.9012 9.72357 33.8023C8.42965 33.6047 7.43433 32.5174 7.43433 31.2326L7.23527 23.4244C7.17279 23.6726 7.07109 23.9208 6.97941 24.1445C6.92504 24.2772 6.8742 24.4012 6.83714 24.5116C6.43901 25.4012 5.84182 27.7733 5.34416 29.9477C4.94603 31.5291 3.25399 32.4186 1.76101 31.8256H1.66148C0.467094 31.3314 -0.22963 30.1454 0.0689659 28.8605C0.566626 26.6861 1.26335 23.9186 1.86054 22.5349C1.90086 22.4148 1.95752 22.2946 2.01728 22.1679C2.10503 21.9819 2.19946 21.7817 2.25867 21.5465C2.26932 21.518 2.28006 21.4891 2.29089 21.4601C3.29266 18.7727 5.09562 13.9361 9.72357 13.9361H16.8899C21.4683 13.9361 23.3594 18.8779 24.3548 21.5465Z" fill="#FF6737"/>
<path fill-rule="evenodd" clip-rule="evenodd" d="M64.964 6.22674C64.964 9.66568 62.1566 12.4535 58.6935 12.4535C55.2304 12.4535 52.423 9.66568 52.423 6.22674C52.423 2.78781 55.2304 0 58.6935 0C62.1566 0 64.964 2.78781 64.964 6.22674ZM69.7415 21.5465C69.9406 21.9419 70.0401 22.2384 70.1396 22.5349C70.7368 23.9186 71.4335 26.5872 71.9312 28.8605C72.2298 30.0465 71.5331 31.3314 70.3387 31.8256H70.2392C68.7462 32.4186 67.0541 31.5291 66.656 29.9477C66.1583 27.7733 65.5611 25.5 65.163 24.5116C65.126 24.4012 65.0751 24.2772 65.0207 24.1445C64.9291 23.9208 64.8274 23.6726 64.7649 23.4244L64.5658 31.2326C64.5658 32.5174 63.5705 33.7035 62.2766 33.8023C61.1817 33.9012 59.8878 34 58.6934 34C57.4991 34 56.3047 33.9012 55.1103 33.8023C53.8164 33.6047 52.8211 32.5174 52.8211 31.2326L52.622 23.4244C52.5595 23.6726 52.4578 23.9208 52.3661 24.1445C52.3118 24.2772 52.2609 24.4012 52.2239 24.5116C51.8257 25.4012 51.2285 27.7733 50.7309 29.9477C50.3328 31.5291 48.6407 32.4186 47.1477 31.8256H47.0482C45.8538 31.3314 45.1571 30.1454 45.4557 28.8605C45.9533 26.6861 46.6501 23.9186 47.2473 22.5349C47.2876 22.4148 47.3442 22.2946 47.404 22.1679C47.4917 21.9819 47.5862 21.7817 47.6454 21.5465C47.656 21.518 47.6668 21.4891 47.6776 21.4601C48.6794 18.7727 50.4823 13.9361 55.1103 13.9361H55.3094H62.0775H62.2766C66.8551 13.9361 68.7462 18.8779 69.7415 21.5465Z" fill="#FFD642"/>
</svg>
