<svg width="115" height="36" viewBox="0 0 115 36" fill="none" xmlns="http://www.w3.org/2000/svg">
<path d="M25.6305 19.3871C25.6305 17.7046 24.2859 16.3345 22.632 16.3345H21.0278C19.3751 16.3345 18.0293 17.7046 18.0293 19.3871C18.0293 19.4809 18.0541 19.5698 18.0624 19.6624H25.6022C25.6116 19.571 25.6305 19.4809 25.6305 19.3871Z" fill="#E0DE9F"/>
<path d="M2.29575 19.6635H9.83553C9.8438 19.5709 9.86268 19.482 9.86268 19.3882C9.86268 17.7056 8.51811 16.3354 6.86542 16.3354H5.26114C3.60845 16.3354 2.2627 17.7056 2.2627 19.3882C2.2627 19.4808 2.28749 19.5709 2.29575 19.6635Z" fill="#E0DE9F"/>
<path d="M30.1885 19.6643C30.1826 19.5705 30.1554 19.4828 30.1554 19.389C30.1554 17.0184 32.0489 15.0902 34.3757 15.0902H35.9799C38.3067 15.0902 40.2002 17.0184 40.2002 19.389C40.2002 19.4828 40.1778 19.5717 40.173 19.6643H42.4502V4.57275H14.5576V19.6643H16.8419C16.836 19.5717 16.8088 19.4828 16.8088 19.389C16.8088 17.0184 18.7023 15.0902 21.0291 15.0902H22.6333C24.9601 15.0902 26.8536 17.0184 26.8536 19.389C26.8536 19.4816 26.8323 19.5717 26.8264 19.6643H28.5039H30.1885Z" fill="#FF6737"/>
<path d="M16.8538 3.32766H24.3924C24.4007 3.23512 24.4196 3.14619 24.4196 3.05246C24.4196 1.37 23.075 0 21.4211 0H19.8168C18.1641 0 16.8184 1.37 16.8184 3.05246C16.8207 3.14499 16.8455 3.23392 16.8538 3.32766Z" fill="#FF6737"/>
<path d="M0 35.9998H27.8926V20.9097H13.9463H0V35.9998Z" fill="#E0DE9F"/>
<path d="M57.0078 20.9097H43.0615H29.1152V35.9998H57.0078V20.9097Z" fill="#FFD642"/>
<path d="M91.4722 19.3871C91.4722 17.7046 90.1277 16.3345 88.4738 16.3345H86.8695C85.2168 16.3345 83.8711 17.7046 83.8711 19.3871C83.8711 19.4809 83.8959 19.5698 83.9041 19.6624H91.4439C91.4533 19.571 91.4722 19.4809 91.4722 19.3871Z" fill="#E0DE9F"/>
<path d="M69.1346 19.6635H76.6744C76.6827 19.5709 76.7015 19.482 76.7015 19.3882C76.7015 17.7056 75.357 16.3354 73.7043 16.3354H72.1C70.4473 16.3354 69.1016 17.7056 69.1016 19.3882C69.1016 19.4808 69.1264 19.5709 69.1346 19.6635Z" fill="#E0DE9F"/>
<path d="M112.002 32.9387C113.654 32.9387 115 31.5695 115 29.8853L115 28.2516C115 26.5687 113.654 25.1982 112.002 25.1982C111.909 25.1982 111.822 25.2235 111.731 25.2319L111.731 32.9098C111.821 32.9194 111.909 32.9387 112.002 32.9387Z" fill="#FFD642"/>
<path d="M111.73 10.1924L111.73 17.8703C111.821 17.8787 111.909 17.8979 112.001 17.8979C113.653 17.8979 114.999 16.5287 114.999 14.8458L114.999 13.2121C114.999 11.5291 113.653 10.1587 112.001 10.1587C111.91 10.1587 111.821 10.1839 111.73 10.1924Z" fill="#FFD642"/>
<path d="M66.8389 35.4075H94.7314V20.3174H80.7852H66.8389V35.4075Z" fill="#E0DE9F"/>
<path d="M95.7686 7.15181L95.7686 21.3537L95.7686 35.5557L110.587 35.5557L110.587 7.15181L95.7686 7.15181Z" fill="#FFD642"/>
<path d="M47.1786 19.6635H54.7172C54.7266 19.5709 54.7443 19.482 54.7443 19.3882C54.7443 17.7056 53.3998 16.3354 51.7482 16.3354H50.144C48.4901 16.3354 47.1455 17.7056 47.1455 19.3882C47.1455 19.4808 47.1715 19.5709 47.1786 19.6635Z" fill="#FFD642"/>
<path d="M35.9805 16.3345H34.3762C32.7235 16.3345 31.3789 17.7046 31.3789 19.3871C31.3789 19.4821 31.4037 19.5698 31.412 19.6624H38.9518C38.96 19.5698 38.9777 19.4809 38.9777 19.3871C38.9777 17.7046 37.6332 16.3345 35.9805 16.3345Z" fill="#FFD642"/>
<path d="M32.62 3.32766H40.1597C40.168 3.23512 40.1869 3.14739 40.1869 3.05246C40.1869 1.37 38.8411 0 37.1896 0H35.5854C33.9315 0 32.5869 1.37 32.5869 3.05246C32.5869 3.14499 32.6117 3.23512 32.62 3.32766Z" fill="#FF6737"/>
</svg>
