<svg width="24" height="24" viewBox="0 0 24 24" fill="none" xmlns="http://www.w3.org/2000/svg">
<path d="M12.0812 20C12.0803 20 12.0798 20 12.079 20C9.82989 19.9992 8 18.1689 8 15.9197L8.00455 6.53878C8.00168 6.51267 8 6.4864 8 6.45945C8 5.10299 9.10349 4 10.4596 4C11.8169 4 12.9206 5.10484 12.9206 6.46282V15.7955H11.6234V6.46282C11.6234 5.82013 11.1013 5.29735 10.4596 5.29735C9.85566 5.29735 9.35731 5.76101 9.3024 6.35048L9.29735 15.9197C9.29735 17.4535 10.5457 18.7018 12.0798 18.7025C12.0803 18.7025 12.0807 18.7025 12.0812 18.7025C12.8244 18.7025 13.523 18.4128 14.0483 17.8875C14.574 17.3622 14.8633 16.6629 14.8633 15.9195V4.64876H16.1607V15.9198C16.1607 17.0104 15.7366 18.0349 14.9659 18.8051C14.1957 19.5759 13.1712 20 12.0812 20Z" fill="#BDBDBD"/>
</svg>
