<svg width="22" height="24" viewBox="0 0 22 24" fill="none" xmlns="http://www.w3.org/2000/svg">
<path d="M0.956055 12.5903V20.6613C0.956055 22.1342 2.02919 23.3334 3.34717 23.3334H10.5205V12.6448H1.43428C1.27073 12.6448 1.111 12.6256 0.956055 12.5903Z" fill="#FFD642"/>
<path d="M11.4785 12.6448V23.3334H18.6519C19.9698 23.3334 21.043 22.1342 21.043 20.6613V12.5903C20.888 12.6256 20.7283 12.6448 20.5647 12.6448H11.4785Z" fill="#FFD642"/>
<path d="M20.5648 5.16357H15.4708C14.9858 5.72259 14.4206 6.19395 13.7893 6.54668L14.8844 7.77052C15.1551 8.073 15.3043 8.47703 15.3043 8.90458C15.3043 9.33212 15.1551 9.73508 14.8844 10.0386C14.6138 10.3422 14.2522 10.5079 13.8697 10.5079C13.4871 10.5079 13.1265 10.3411 12.8549 10.0386L11.4785 8.49948V11.5767H20.5648C21.3558 11.5767 21.9995 10.8574 21.9995 9.97343V6.76686C21.9995 5.88292 21.3558 5.16357 20.5648 5.16357Z" fill="#E0DE9F"/>
<path d="M8.12986 10.5079C7.74728 10.5079 7.38669 10.3411 7.11506 10.0386C6.84343 9.73615 6.69518 9.33105 6.69518 8.90458C6.69518 8.47703 6.84438 8.07407 7.11506 7.77052L8.2102 6.54668C7.57894 6.19395 7.01368 5.72152 6.52875 5.16357H1.43468C0.643693 5.16357 0 5.88292 0 6.76686V9.97343C0 10.8574 0.643693 11.5767 1.43468 11.5767H10.521V8.49948L9.14466 10.0386C8.87302 10.3411 8.51244 10.5079 8.12986 10.5079Z" fill="#E0DE9F"/>
<path d="M13.8681 9.43962C13.9906 9.43962 14.113 9.38725 14.2067 9.28357C14.3932 9.07514 14.3932 8.73632 14.2067 8.52789L12.0365 6.10265C13.9083 5.67404 15.4845 4.1274 16.0412 2.03351C16.1674 1.55894 16.0861 1.05551 15.8164 0.650409C15.4616 0.119187 14.838 -0.122375 14.2794 0.0625374C12.7893 0.557418 11.6157 1.77805 10.9988 3.30545C10.3819 1.77805 9.2083 0.557418 7.71911 0.0625374C7.1615 -0.123444 6.53598 0.119187 6.18209 0.64934C5.91237 1.05337 5.83012 1.55787 5.95637 2.03137C6.51398 4.12526 8.08925 5.6719 9.96198 6.10051L7.7918 8.52575C7.60529 8.73418 7.60529 9.073 7.7918 9.28143C7.88457 9.38725 8.007 9.43962 8.12942 9.43962C8.25185 9.43962 8.37428 9.38725 8.46801 9.28357L10.9988 6.45537L13.5295 9.28357C13.6233 9.38725 13.7457 9.43962 13.8681 9.43962ZM6.87265 1.72782C6.81909 1.5258 6.89656 1.36547 6.94821 1.28959C7.04098 1.15063 7.18158 1.06726 7.32314 1.06726C7.36331 1.06726 7.40444 1.07475 7.44556 1.08864C9.09161 1.6359 10.2862 3.25308 10.4899 5.12999C8.80946 4.90232 7.36235 3.56732 6.87265 1.72782ZM14.552 1.08757C14.5922 1.07475 14.6333 1.06726 14.6744 1.06726C14.816 1.06726 14.9566 1.15063 15.0493 1.28959C15.101 1.36654 15.1785 1.5258 15.1239 1.72782C14.6342 3.56732 13.1871 4.90232 11.5076 5.12999C11.7104 3.25308 12.905 1.63483 14.552 1.08757Z" fill="#FF6737"/>
</svg>
