<?xml version="1.0" encoding="UTF-8"?>
<!DOCTYPE svg PUBLIC "-//W3C//DTD SVG 1.1//EN" "http://www.w3.org/Graphics/SVG/1.1/DTD/svg11.dtd">
<!-- Creator: CorelDRAW 2020 (64-Bit) -->
<svg xmlns="http://www.w3.org/2000/svg" xml:space="preserve" width="109" height="96" version="1.1" style="shape-rendering:geometricPrecision; text-rendering:geometricPrecision; image-rendering:optimizeQuality; fill-rule:evenodd; clip-rule:evenodd"
viewBox="0 0 1753.96 1800.32"
 xmlns:xlink="http://www.w3.org/1999/xlink"
 xmlns:xodm="http://www.corel.com/coreldraw/odm/2003">
 <defs>
  <style type="text/css">
   <![CDATA[
    .str0 {stroke:white;stroke-width:13.06;stroke-linecap:round;stroke-miterlimit:2.61313}
    .fil2 {fill:none}
    .fil0 {fill:white}
    .fil1 {fill:white;fill-rule:nonzero}
   ]]>
  </style>
 </defs>
 <g id="Layer_x0020_1">
  <metadata id="CorelCorpID_0Corel-Layer"/>
  <g id="_2326674095728">
   <path class="fil0" d="M710.52 353.04c-25.63,-134.11 162.16,-165.82 185.56,-43.1 24.99,131.03 -164.05,155.55 -185.56,43.1zm-173.1 660.24c75.14,59.86 214.59,127.62 326.41,66.44 123.05,-67.31 136.78,-219.84 96.93,-309.25 -37.1,93.92 -54.88,152.2 -141.63,207.51 -98.77,62.98 -210.15,46.81 -281.71,35.3zm360.56 103.76c99.8,25.13 448.46,-92.62 453.84,-346.78 3.23,-152.41 -67.66,-232.71 -124.95,-289.92 161.39,44.71 175.81,242.89 183.6,259.34 71.41,-172.3 32.69,-312.83 -31.38,-383.8 -105.15,-116.44 -265.35,-61.44 -324.09,47.05 -119.37,220.44 243.81,534.18 -157.02,714.11zm-351.91 -431.78c-117.55,-28.61 -182.78,-156.71 -207.66,-287.98 -35.06,83.25 -41.04,168.58 -20.78,257.76 72.06,317.27 423.82,367.69 483.57,173.32 74.8,-243.29 -328.79,-316.79 -227.5,-613.52 28.56,-83.67 80.34,-152.23 114.69,-194.86 -202.43,48.24 -351.19,287.63 -255.63,499.19 39.11,86.57 78.43,103.12 113.31,166.08zm791.13 -454.46c-16.31,-48.84 -59.04,-90.58 -110.13,-120.06 -137.39,-79.24 -235.83,-44.49 -351.2,-4.19 55.12,-85.91 122.61,-86.61 172.9,-93.08 -90.15,-39.87 -262.15,13.29 -340.03,99.77 -72.66,80.69 -128.44,245.39 2.04,326.22 136.48,84.54 246.84,-47.61 306.58,-111.59 78.29,-106.89 197.52,-159.92 319.84,-97.08z"/>
   <path class="fil1" d="M15.3 1452.07m121.57 -247.65l-45.91 0 -75.66 247.65 38.47 0 21.34 -72.74 75.65 0 22.31 72.74 39.44 0 -75.65 -247.65zm-55.93 146.14l19.72 -64.99c4.2,-15.52 8.08,-33.62 11.64,-48.82l0.65 0c3.56,15.2 7.76,32.65 12.29,48.82l19.4 64.99 -63.69 0zm159.39 101.52m228.25 -247.65l-46.88 0 -35.89 108.63c-9.7,30.71 -17.46,58.84 -23.6,85.35l-0.97 0c-6.15,-27.16 -13.58,-54.64 -22.63,-85.03l-34.92 -108.95 -46.55 0 -16.81 247.65 34.92 0 5.49 -102.17c1.94,-34.59 3.88,-73.71 4.53,-104.43l0.97 0c6.14,29.74 14.87,62.08 24.89,94.41l33.95 109.93 28.13 0 36.85 -112.19c10.35,-31.36 20.05,-63.04 27.48,-92.14l0.97 0c-0.32,30.72 1.62,68.87 3.24,102.49l5.49 104.11 36.21 0 -14.88 -247.65zm42.03 247.65m121.57 -247.65l-45.91 0 -75.66 247.65 38.47 0 21.34 -72.74 75.65 0 22.31 72.74 39.44 0 -75.65 -247.65zm-55.93 146.14l19.72 -64.99c4.2,-15.52 8.08,-33.62 11.64,-48.82l0.65 0c3.56,15.2 7.76,32.65 12.29,48.82l19.39 64.99 -63.69 0zm165.86 101.52m177.17 -247.65l-34.6 0 0 91.17c0,39.44 0.97,71.45 3.88,105.08l-0.97 0.32c-10.67,-26.19 -24.57,-54.96 -40.09,-82.12l-64.66 -114.45 -40.73 0 0 247.65 34.6 0 0 -92.47c0,-43.65 -0.65,-75.66 -2.59,-107.01l1.29 -0.32c11.32,27.81 26.19,56.9 41.06,83.74l64.98 116.07 37.83 0 0 -247.65z"/>
   <path class="fil1" d="M1031.43 1452.07m136.76 -239.9c-10.67,-5.49 -28.45,-11.32 -52.05,-11.32 -49.14,0 -80.5,29.42 -80.5,68.54 0,33.63 24.89,55.93 61.75,70.8 29.42,12.29 42.03,25.22 42.03,46.23 0,22.31 -16.49,37.5 -45.91,37.5 -20.37,0 -40.42,-6.47 -53.67,-14.55l-8.41 31.36c11.96,8.08 36.54,14.87 59.82,14.87 55.61,0 86.32,-31.04 86.32,-72.42 0,-33.94 -19.08,-55.61 -58.84,-73.07 -31.36,-13.58 -45.26,-23.92 -45.26,-44.94 0,-15.84 12.29,-32.98 41.71,-32.98 20.37,0 35.89,6.47 43.97,10.99l9.06 -31.04zm49.46 239.9m134.82 -31.36l-97.32 0 0 -82.12 86.65 0 0 -31.04 -86.65 0 0 -71.77 91.82 0 0 -31.36 -129.32 0 0 247.65 134.82 0 0 -31.36zm14.22 31.36m171.03 -247.65l-171.03 0 0 32 66.6 0 0 215.65 37.5 0 0 -215.65 66.93 0 0 -32zm27.47 247.65m174.27 -247.65l-37.5 0 0 150.01c0,49.14 -19.4,70.48 -50.44,70.48 -28.45,0 -48.82,-21.02 -48.82,-70.48l0 -150.01 -37.5 0 0 147.75c0,73.71 34.27,103.46 85.03,103.46 52.69,0 89.23,-31.04 89.23,-104.43l0 -146.78z"/>
   <line class="fil2 str0" x1="6.53" y1="1523.7" x2="1747.43" y2= "1524.58" />
   <path class="fil1" d="M176.74 1743.26m149 8.27c-3.63,0 -6.65,-2.02 -8.87,-5.65 -2.02,-3.22 -3.63,-8.47 -5.24,-15.73l-3.63 -16.94c-2.62,-10.49 -6.86,-33.68 -12.7,-69.56l-19.76 59.48 -5.85 18.55c-2.42,7.46 -4.84,13.51 -7.26,18.35 -2.82,5.04 -6.45,7.46 -11.29,7.46 -3.83,0 -6.86,-2.01 -9.07,-6.25 -1.41,-2.82 -2.82,-6.25 -4.03,-10.68l-2.82 -10.89c-6.65,-23.19 -12.5,-47.99 -17.54,-74.4l-3.43 17.54 -12.7 52.02c-0.6,6.25 -2.22,15.12 -5.04,27.22 -1.81,5.04 -5.04,7.66 -9.67,7.66 -3.23,0 -5.85,-1.21 -7.66,-3.43 -1.61,-2.02 -2.42,-4.43 -2.42,-7.46 0,-10.89 2.22,-24.4 6.65,-40.33l10.89 -39.72 5.65 -30.85c3.02,-14.52 6.05,-24 9.28,-28.43 2.62,-3.83 5.85,-5.85 9.68,-5.85 4.23,0 7.46,2.42 9.68,7.26 2.42,5.85 5.24,17.74 8.27,35.89 3.43,21.58 8.88,44.96 16.13,69.97 9.68,-25.2 18.15,-51.62 25.2,-78.84l3.03 -14.52c1.21,-5.65 2.62,-10.28 4.64,-13.91 2.42,-4.84 6.05,-7.26 10.49,-7.26 5.64,0 9.88,5.44 12.9,16.33 1,3.63 2.42,11.49 3.83,23.19 3.83,29.64 8.67,55.05 14.52,76.01l4.84 16.93c2.42,9.08 3.63,14.72 3.63,16.74 0,2.83 -1.01,5.24 -3.22,7.06 -2.02,2.02 -4.44,3.03 -7.06,3.03z"/>
   <path class="fil1" d="M408.61 1743.26m100.01 -87.91l-34.07 73.8c-8.47,17.95 -14.92,32.87 -19.36,44.96l-6.45 19.15c-1.81,4.64 -4.64,7.06 -8.87,7.06 -2.82,0 -5.24,-1.01 -7.06,-2.82 -2.02,-1.81 -3.03,-4.03 -3.03,-6.65 0,-6.65 7.06,-25.61 21.17,-57.06l-35.28 -67.75 -4.44 -7.26c-1.62,-3.03 -2.63,-5.65 -2.63,-7.66 0,-2.62 1.01,-5.04 3.23,-7.06 2.02,-2.02 4.23,-3.03 6.85,-3.03 3.03,0 5.25,1.21 7.06,3.43 11.09,15.53 22.98,37.5 35.89,66.13l14.52 -33.87c5.24,-11.7 10.28,-21.98 15.12,-30.45 2.22,-3.63 4.84,-5.44 8.27,-5.44 2.82,0 5.04,1.01 7.26,2.82 2.02,2.01 3.03,4.23 3.03,6.85 0,1.41 -0.4,3.03 -1.21,4.84z"/>
   <path class="fil1" d="M652.69 1743.26m0.2 -24.6c-0.2,-2.62 0.81,-4.84 2.63,-6.66 2.01,-1.81 4.44,-2.62 7.26,-2.62 3.22,0 6.05,1.82 8.47,5.45 3.23,5.04 6.25,8.47 8.87,10.28 5.65,3.63 13.71,5.44 24.4,5.44 10.08,0 19.56,-2.22 28.23,-6.65 11.29,-5.65 16.74,-13.51 16.74,-23.39 0,-8.47 -4.64,-14.92 -13.91,-19.76 -8.07,-4.03 -17.74,-6.25 -29.44,-6.65 -10.48,-0.4 -19.35,-2.62 -26.62,-6.85 -9.27,-5.24 -13.91,-12.9 -13.91,-22.78 0,-11.7 6.65,-22.38 19.96,-32.06 12.5,-9.08 25.61,-13.51 39.11,-13.51 6.45,0 13.71,1.01 21.58,3.23 10.68,2.82 15.93,6.45 15.93,10.68 0,5.85 -2.83,8.67 -8.67,8.67 -2.62,0 -7.26,-0.61 -13.91,-2.02 -6.45,-1.41 -11.69,-2.02 -15.32,-2.02 -10.08,0.2 -18.75,2.62 -26.01,7.46 -7.26,5.24 -11.09,11.29 -11.09,18.55 0,5.44 5.04,9.28 14.72,11.49 3.63,0.81 10.49,1.62 20.97,2.42 14.92,1.01 26.82,5.84 35.08,14.11 7.86,7.66 11.69,16.94 11.69,27.83 0,15.73 -7.26,28.03 -21.57,37.5 -12.5,8.06 -27.22,12.1 -43.76,12.1 -11.9,0 -22.98,-2.22 -32.86,-6.86 -12.3,-5.65 -18.55,-13.51 -18.55,-23.39z"/>
   <path class="fil1" d="M855.02 1743.26m47.98 6.25c-13.51,0 -24.8,-4.03 -33.67,-12.3 -9.47,-8.47 -14.31,-19.76 -14.31,-33.68 0,-13.31 4.43,-27.22 13.3,-41.33 9.88,-15.73 20.97,-23.59 33.27,-23.59 6.45,0 13.71,1.41 21.58,4.44 10.08,4.03 15.12,8.67 15.12,14.32 0,2.42 -0.81,4.64 -2.42,6.65 -1.62,1.82 -3.63,2.82 -6.25,2.82 -1.81,0 -3.43,-0.6 -4.84,-1.81 -1.41,-1.01 -2.82,-2.22 -4.03,-3.22 -4.03,-3.23 -10.28,-4.64 -19.15,-4.64 -6.65,0 -13.31,5.84 -19.76,17.94 -6.05,10.89 -9.08,20.37 -9.08,28.43 0,8.67 3.03,15.33 8.87,20.37 5.65,4.64 12.7,7.05 21.37,7.05 3.83,0 8.07,-1 12.5,-3.22l11.49 -6.05c2.02,-1.01 3.43,-1.62 4.24,-1.62 2.42,0 4.44,1.01 6.25,3.03 1.81,1.82 2.62,4.03 2.62,6.65 0,4.64 -5.04,9.28 -15.12,13.91 -8.88,3.83 -16.13,5.85 -21.98,5.85z"/>
   <path class="fil1" d="M1027.98 1743.26m81.86 6.05c-4.64,0 -7.86,-2.42 -9.28,-7.46 -1.41,-5.45 -2.82,-13.11 -4.03,-22.99 -1.21,-9.48 -1.82,-17.35 -1.82,-23.39 0,-1.61 0,-4.23 0.2,-7.66 0.2,-3.63 0.2,-6.25 0.2,-7.86 0,-12.3 -3.02,-18.55 -9.28,-18.55 -8.27,0 -15.73,3.83 -22.18,11.29 -3.42,4.03 -8.06,11.29 -13.91,22.18 0,25 -1.01,39.92 -3.03,44.36 -1.82,4.24 -4.84,6.25 -8.67,6.25 -2.62,0 -5.04,-1.01 -7.05,-2.82 -2.02,-1.81 -3.03,-4.03 -3.03,-6.65 0,-1.01 0.2,-2.42 0.81,-4.43 0.6,-1.61 1,-6.45 1.21,-14.32l0.2 -14.52 0.4 -72.38c0.4,-8.27 0.6,-13.71 0.6,-16.53 0,-3.22 -0.4,-6.45 -1.01,-9.48 -0.6,-3.02 -0.81,-6.05 -0.81,-9.27 0,-2.82 0.81,-5.04 2.83,-6.86 1.81,-1.82 4.23,-2.62 7.05,-2.62 5.24,0 8.47,2.82 9.28,8.67 1.21,6.25 1.61,12.1 1.61,17.14 0,6.85 -0.2,14.11 -0.6,21.57 -0.4,7.26 -0.6,14.32 -0.6,21.58l0.2 8.67c5.44,-7.26 11.09,-12.7 17.34,-16.13 6.05,-3.63 12.5,-5.45 19.36,-5.45 11.09,0 18.55,3.63 22.58,10.69 2.82,4.84 4.44,13.31 4.84,25.2l0.81 18.75 2.01 20.57c0.81,7.66 2.02,14.31 3.43,20.16 0.2,1.21 0.2,2.02 0.2,2.82 0,2.82 -0.81,5.04 -2.82,6.85 -2.01,1.81 -4.44,2.62 -7.06,2.62z"/>
   <path class="fil1" d="M1203.35 1743.26m42.75 5.85c-11.09,0 -20.57,-4.03 -28.43,-12.3 -8.87,-9.07 -13.51,-21.17 -13.91,-36.5 -0.41,-14.92 3.22,-27.83 11.09,-39.12 9.28,-13.31 21.98,-19.96 38.51,-19.96 13.11,0 22.99,5.85 29.84,17.95 5.25,9.68 7.87,21.37 7.66,35.08 -0.2,14.52 -4.03,27.02 -11.29,37.31 -8.47,11.69 -19.55,17.54 -33.47,17.54zm5.84 -87.91c-9.47,-0.2 -17.14,4.44 -22.38,13.71 -4.44,7.46 -6.45,15.93 -6.45,25.4 0,9.47 2.62,16.94 7.66,22.18 4.43,4.43 9.47,6.65 15.32,6.65 6.85,0 12.7,-2.42 17.54,-7.46 5.65,-5.45 8.67,-12.9 8.87,-22.38 1.01,-25.4 -5.85,-38.11 -20.57,-38.11z"/>
   <path class="fil1" d="M1374.74 1743.26m42.75 5.85c-11.09,0 -20.57,-4.03 -28.43,-12.3 -8.88,-9.07 -13.51,-21.17 -13.91,-36.5 -0.4,-14.92 3.22,-27.83 11.09,-39.12 9.28,-13.31 21.98,-19.96 38.51,-19.96 13.11,0 22.98,5.85 29.84,17.95 5.25,9.68 7.87,21.37 7.66,35.08 -0.2,14.52 -4.03,27.02 -11.29,37.31 -8.47,11.69 -19.55,17.54 -33.47,17.54zm5.85 -87.91c-9.47,-0.2 -17.14,4.44 -22.38,13.71 -4.44,7.46 -6.45,15.93 -6.45,25.4 0,9.47 2.62,16.94 7.66,22.18 4.43,4.43 9.47,6.65 15.32,6.65 6.85,0 12.7,-2.42 17.54,-7.46 5.65,-5.45 8.67,-12.9 8.87,-22.38 1.01,-25.4 -5.85,-38.11 -20.57,-38.11z"/>
   <path class="fil1" d="M1555.39 1743.26m21.58 -77.43l-1.41 49c0,5.24 -0.4,12.7 -0.81,22.78 -0.8,6.65 -3.83,9.88 -9.67,9.88 -6.45,0 -9.68,-3.42 -9.68,-10.08 0,-7.86 0.41,-19.76 1.01,-35.69 0.81,-15.93 1.21,-27.82 1.21,-35.89 0,-10.28 0.2,-22.18 0.4,-35.49 0.41,-13.51 0.61,-25.2 0.61,-35.69 0,-6.45 3.22,-9.88 9.67,-9.88 6.45,0 9.68,3.43 9.68,9.88 0,10.49 -0.2,22.18 -0.61,35.69 -0.2,13.31 -0.4,25.2 -0.4,35.49z"/>
  </g>
 </g>
</svg>
