<svg width="54" height="44" viewBox="0 0 54 44" fill="none" xmlns="http://www.w3.org/2000/svg">
<path d="M12.375 25.4495C19.1993 25.4495 24.75 19.7418 24.75 12.7247C24.75 5.70762 19.1993 0 12.375 0C5.55075 0 0 5.70762 0 12.7247C0 19.7418 5.55075 25.4495 12.375 25.4495Z" fill="#E0E0E0"/>
<path d="M12.375 2.31348C17.9572 2.31348 22.5 6.98466 22.5 12.7247C22.5 18.4648 17.9572 23.136 12.375 23.136C6.79275 23.136 2.25 18.4648 2.25 12.7247C2.25 6.98466 6.79275 2.31348 12.375 2.31348Z" fill="#E0E0E0"/>
<path d="M23.625 43.9583C24.246 43.9583 24.75 43.44 24.75 42.8015C24.75 42.1629 24.246 41.6447 23.625 41.6447C11.8395 41.6447 2.25 31.7843 2.25 19.6658V12.7251C2.25 12.0866 1.746 11.5684 1.125 11.5684C0.504 11.5684 0 12.0866 0 12.7251V19.6658C0 33.0614 10.5975 43.9583 23.625 43.9583Z" fill="#E0E0E0"/>
<path d="M41.625 25.4495C48.4493 25.4495 54 19.7418 54 12.7247C54 5.70762 48.4493 0 41.625 0C34.8008 0 29.25 5.70762 29.25 12.7247C29.25 19.7418 34.8008 25.4495 41.625 25.4495Z" fill="#E0E0E0"/>
<path d="M41.625 2.31348C47.2072 2.31348 51.75 6.98466 51.75 12.7247C51.75 18.4648 47.2072 23.136 41.625 23.136C36.0428 23.136 31.5 18.4648 31.5 12.7247C31.5 6.98466 36.0428 2.31348 41.625 2.31348Z" fill="#E0E0E0"/>
<path d="M52.875 43.9583C53.496 43.9583 54 43.44 54 42.8015C54 42.1629 53.496 41.6447 52.875 41.6447C41.0895 41.6447 31.5 31.7843 31.5 19.6658V12.7251C31.5 12.0866 30.996 11.5684 30.375 11.5684C29.754 11.5684 29.25 12.0866 29.25 12.7251V19.6658C29.25 33.0614 39.8475 43.9583 52.875 43.9583Z" fill="#E0E0E0"/>
</svg>
