<svg width="95" height="9" viewBox="0 0 95 9" fill="none" xmlns="http://www.w3.org/2000/svg">
<path d="M1 1L5.71089 6.2951C6.96069 7.69991 9.1799 7.62193 10.328 6.13288L12.075 3.86712C13.2232 2.37807 15.4424 2.3001 16.6922 3.7049L18.9966 6.2951C20.2464 7.69991 22.4656 7.62193 23.6137 6.13288L25.3607 3.86712C26.5089 2.37807 28.7281 2.3001 29.9779 3.7049L32.2823 6.2951C33.5321 7.69991 35.7513 7.62193 36.8995 6.13288L38.6465 3.86712C39.7946 2.37807 42.0138 2.3001 43.2636 3.7049L45.568 6.2951C46.8178 7.69991 49.037 7.62193 50.1852 6.13288L51.9322 3.86712C53.0803 2.37807 55.2995 2.3001 56.5493 3.7049L58.8537 6.2951C60.1036 7.69991 62.3228 7.62193 63.4709 6.13288L65.2179 3.86712C66.366 2.37807 68.5852 2.3001 69.835 3.7049L72.1395 6.2951C73.3893 7.69991 75.6085 7.62193 76.7566 6.13288L78.5036 3.86712C79.6517 2.37807 81.8709 2.3001 83.1207 3.7049L85.4252 6.2951C86.675 7.69991 88.8942 7.62193 90.0423 6.13288L94 1" stroke="#FDC124" stroke-width="2" stroke-linecap="round" stroke-linejoin="round"/>
</svg>
