<svg version="1" xmlns="http://www.w3.org/2000/svg" width="346.667" height="346.667" viewBox="0 0 260.000000 260.000000"><path d="M134.4 2.5c-26 6.6-44.2 20.2-53.4 40.1-8.5 18.4-8.8 35.3-.8 47.7 5.8 9 17.5 16.3 28.2 17.5 16.9 2 33.4-8.1 54.6-33.4 9.1-10.7 15.5-16.4 23.7-20.6 8-4.2 13.7-5.9 21.3-6.4 6.4-.3 17.4 1.7 22 4.1 1.8.9 3.4 1.4 3.7 1.2.9-1-4.7-10.3-8.9-14.7-6.4-6.7-11.7-10.6-20.5-14.9-13-6.4-19.6-8.1-31.6-8.2-9.9 0-17.6 1.4-31 5.8-6 1.9-11 3.3-11.3 3.1-.8-.9 9-10.9 13.4-13.6 5-3 12.9-5.7 19.5-6.5 5.4-.7 5.6-1.4.5-2.5-7.9-1.7-19.7-1.1-29.4 1.3zm-11.3 54c6.5 3.4 10.3 9.3 11.4 17.8 2.5 18.6-18.9 31-34.7 20-10.7-7.4-10.9-26.5-.3-35 6.6-5.3 16.4-6.5 23.6-2.8z"/><path d="M82 6c-26.1 8.2-49.5 33.4-57.2 61.7-2.8 10.3-3 30.7-.4 40.3 2.4 9.1 9.6 23.3 15.6 31 8.6 11 14 18.4 14 19.1 0 1.3-6.2-1-11.8-4.3-14.5-8.7-26.7-28.3-32.6-52.3l-2.3-9-2.1 5.6c-9.8 26.2-5.1 62.3 11.3 86.8 24 36.2 71.7 45.3 91.4 17.3 6.2-8.8 8.3-23.4 5-35.2-3.2-11.8-10.1-21.6-30.7-43.9-6-6.4-15.2-19.2-18.2-25.1-9.6-19-8.8-38 2.5-61.5 4.2-8.6 13.6-23.7 17.6-28.1C87.2 5.1 86.7 4.5 82 6zM204.5 68.2C192 70.4 177.7 80.8 171 92.5c-5.7 10-7.7 26.5-5 41.5.6 3.6 3.3 15.5 6 26.5s5.4 24 6.1 28.9c2.9 22.4-2.6 39.5-16.9 52.7-6.1 5.5-19.8 14.9-22 14.9-.5 0-1.5.7-2.2 1.6-1.2 1.3-.6 1.5 5.5 1.3 17.8-.6 40.4-8.7 59-21.2 8.4-5.7 22.5-20.1 26.7-27.3 3.5-6 7.2-14.9 8.4-20.1 1.1-5 1.3-22.6.3-29.2-2.2-15-9.9-31.3-20.3-42.8-3.1-3.3-5.6-6.4-5.6-6.7 0-.7 5.9 1.5 10 3.7 1.9 1.1 6.3 4.8 9.7 8.2 7.5 7.7 14.2 20.7 17.4 34 3.3 13.9 3.2 13.9 6.2 4.2 4.2-13.2 5.6-21.8 5.3-34.6-.3-13.6-2.3-22.5-7.3-32.9-9.7-19.9-28.2-30.4-47.8-27z"/><path d="M147.7 181.7c-3.9 11.8-10.7 25.7-15.4 31.4-10.6 12.7-26.1 21.5-41.8 23.6-9.2 1.3-29.1.5-36-1.3-3.2-.9 3 3.9 11.3 8.7 29.5 17 56.1 15.6 73.8-3.8 11.8-12.7 16.8-35.6 11.9-53.7-1.8-6.7-2.8-8-3.8-4.9z"/></svg>